<?xml version="1.0"?>
<!DOCTYPE svg PUBLIC "-//W3C//DTD SVG 1.1//EN" "http://www.w3.org/Graphics/SVG/1.1/DTD/svg11.dtd">
<svg id="Baumdiagramm" width="100%" height="100%" viewBox="0 0 550 320" xmlns="http://www.w3.org/2000/svg" version="1.1" xmlns:xlink="http://www.w3.org/1999/xlink">
 <title>Baumdiagramm</title>

 <!-- der Script Bereich -->
  <script type="text/javascript" xlink:href="myScript.js" />

<!-- der Style Bereich -->

 <svg  width="25" height="25" x="195" y="67" onclick="meldung(event)">
  <rect x="0" y="0" width="25" height="25" fill="none" fill-opacity="1" stroke="#D6E9FE"  stroke-opacity="1" rx="5" ry="5" />
  <text  fill="#D6E9FE" x="12" y="20" text-anchor="middle"  font-size="16pt">A</text>
 </svg>

 <svg width="25" height="25" x="195" y="227" >
  <g>
  <rect x="0" y="0" width="25" height="25" fill="none" fill-opacity="1" stroke="#D6E9FE"   stroke-opacity="1" rx="5" ry="5"/>
  <text id="TESTID" fill="#D6E9FE" text-anchor="middle"  font-size="16pt" x="12" y="-0" font-weight="bold"> _ </text>
  <text fill="#D6E9FE" x="12" y="21" text-anchor="middle"  font-size="16pt" >A</text>
  </g>
 </svg>




 <svg width="25" height="25" x="370" y="27">
  <rect x="0" y="0" width="25" height="25" fill="none" fill-opacity="1" stroke="#D6E9FE"   stroke-opacity="1" rx="5" ry="5"/>
  <text fill="#D6E9FE" x="12" y="21" text-anchor="middle"  font-size="16pt">B</text>
 </svg>

 <svg width="25" height="25" x="370" y="107">
  <rect x="0" y="0" width="25" height="25" fill="none" fill-opacity="1" stroke="#D6E9FE"   stroke-opacity="1" rx="5" ry="5"/>
    <text fill="#D6E9FE" text-anchor="middle"  font-size="16pt" x="12" y="-0" font-weight="bold"> _ </text>
  <text fill="#D6E9FE" x="12" y="21" text-anchor="middle"  font-size="16pt">B</text>
 </svg>

 <svg width="25" height="25" x="370" y="187">
  <rect x="0" y="0" width="25" height="25" fill="none" fill-opacity="1" stroke="#D6E9FE"   stroke-opacity="1" rx="5" ry="5"/>
  <text fill="#D6E9FE" x="12" y="21" text-anchor="middle"  font-size="16pt" >B</text>
 </svg>

 <svg width="25" height="25" x="370" y="267">
  <rect x="0" y="0" width="25" height="25" fill="none" fill-opacity="1" stroke="#D6E9FE"  stroke-opacity="1" rx="5" ry="5"/>
   <text fill="#D6E9FE" text-anchor="middle"  font-size="16pt" x="12" y="-0" font-weight="bold"> _ </text>
  <text fill="#D6E9FE" x="12" y="21" text-anchor="middle"  font-size="16pt">B</text>
 </svg>







 <path d="M 45 160 L 195 80" stroke="#D6E9FE" stroke-width="2" stroke-opacity="1"/>

<svg width="25" height="55" x="110" y="50">
  <rect x="0" y="0" width="25" height="55" fill="none" fill-opacity="1" stroke="#D6E9FE"  stroke-opacity="1" rx="5" ry="5"/>
  <text fill="#D6E9FE" text-anchor="middle"  font-size="16pt" x="12" y="25">   1  </text>
  <text fill="#D6E9FE" text-anchor="middle"  font-size="16pt" x="12" y="25" font-weight="bold"> _  </text>
  <text fill="#D6E9FE" text-anchor="middle"  font-size="16pt" x="12" y="47"> 6  </text>
</svg>

 <path d="M 45 160 L 195 240" stroke="#D6E9FE" stroke-width="2" stroke-opacity="1"/>
 <svg width="25" height="55" x="110" y="215">
  <rect x="0" y="0" width="25" height="55" fill="none" fill-opacity="1" stroke="#D6E9FE"  stroke-opacity="1" rx="5" ry="5"/>
  <text fill="#D6E9FE" text-anchor="middle"  font-size="16pt" x="12" y="25">   2  </text>
  <text fill="#D6E9FE" text-anchor="middle"  font-size="16pt" x="12" y="25" font-weight="bold"> _  </text>
  <text fill="#D6E9FE" text-anchor="middle"  font-size="16pt" x="12" y="47"> 6  </text>
</svg>




 <path d="M 220 80 L 370 40" stroke="#D6E9FE" stroke-width="2" stroke-opacity="1"/>
  <svg width="25" height="55" x="290" y="1">
  <rect x="0" y="0" width="25" height="55" fill="none" fill-opacity="1" stroke="#D6E9FE"  stroke-opacity="1" rx="5" ry="5"/>
  <text fill="#D6E9FE" text-anchor="middle"  font-size="16pt" x="12" y="25">   3  </text>
  <text fill="#D6E9FE" text-anchor="middle"  font-size="16pt" x="12" y="25" font-weight="bold"> _  </text>
  <text fill="#D6E9FE" text-anchor="middle"  font-size="16pt" x="12" y="47"> 6  </text>
</svg>

 <path d="M 220 80 L 370 120" stroke="#D6E9FE" stroke-width="2" stroke-opacity="1"/>
  <svg width="25" height="55" x="290" y="105">
  <rect x="0" y="0" width="25" height="55" fill="none" fill-opacity="1" stroke="#D6E9FE"  stroke-opacity="1" rx="5" ry="5"/>
  <text fill="#D6E9FE" text-anchor="middle"  font-size="16pt" x="12" y="25">   4  </text>
  <text fill="#D6E9FE" text-anchor="middle"  font-size="16pt" x="12" y="25" font-weight="bold"> _  </text>
  <text fill="#D6E9FE" text-anchor="middle"  font-size="16pt" x="12" y="47"> 6  </text>
</svg>

 <path d="M 220 240 L 370 200" stroke="#D6E9FE" stroke-width="2" stroke-opacity="1"/>
  <svg width="25" height="55" x="290" y="160">
  <rect x="0" y="0" width="25" height="55" fill="none" fill-opacity="1" stroke="#D6E9FE"  stroke-opacity="1" rx="5" ry="5"/>
  <text fill="#D6E9FE" text-anchor="middle"  font-size="16pt" x="12" y="25">   5  </text>
  <text fill="#D6E9FE" text-anchor="middle"  font-size="16pt" x="12" y="25" font-weight="bold"> _  </text>
  <text fill="#D6E9FE" text-anchor="middle"  font-size="16pt" x="12" y="47"> 6  </text>
</svg>

 <path d="M 220 240 L 370 280" stroke="#D6E9FE" stroke-width="2" stroke-opacity="1"/>
  <svg width="25" height="55" x="290" y="265">
  <rect x="0" y="0" width="25" height="55" fill="none" fill-opacity="1" stroke="#D6E9FE"  stroke-opacity="1" rx="5" ry="5"/>
  <text fill="#D6E9FE" text-anchor="middle"  font-size="16pt" x="12" y="25">   6  </text>
  <text fill="#D6E9FE" text-anchor="middle"  font-size="16pt" x="12" y="25" font-weight="bold"> _  </text>
  <text fill="#D6E9FE" text-anchor="middle"  font-size="16pt" x="12" y="47"> 6  </text>
</svg>




 <svg width="53" height="23" x="410" y="28">
  <rect x="0" y="0" width="53" height="23" fill="none" fill-opacity="1" stroke="#D6E9FE" stroke-width="2" stroke-opacity="1" rx="10" ry="10"/>
  <text fill="#D6E9FE" x="26" y="19" text-anchor="middle"  font-size="16pt">AB</text>
 </svg>

 <svg width="53" height="23" x="410" y="108">
  <rect x="0" y="0" width="53" height="23" fill="none" fill-opacity="1" stroke="#D6E9FE" stroke-width="2" stroke-opacity="1" rx="10" ry="10"/>
   <text fill="#D6E9FE" text-anchor="middle"  font-size="16pt" x="32" y="-1" font-weight="bold" > _ </text>
  <text fill="#D6E9FE" x="26" y="19" text-anchor="middle"  font-size="16pt">AB</text>
 </svg>

 <svg width="53" height="23" x="410" y="188">
  <rect x="0" y="0" width="53" height="23" fill="none" fill-opacity="1" stroke="#D6E9FE" stroke-width="2" stroke-opacity="1" rx="10" ry="10"/>
   <text fill="#D6E9FE" text-anchor="middle"  font-size="16pt" x="19" y="-1" font-weight="bold"> _ </text>
  <text fill="#D6E9FE" x="26" y="19" text-anchor="middle"  font-size="16pt">AB</text>
 </svg>

 <svg width="53" height="23" x="410" y="268">
  <rect x="0" y="0" width="53" height="23" fill="none" fill-opacity="1" stroke="#D6E9FE" stroke-width="2" stroke-opacity="1" rx="10" ry="10"/>
   <text fill="#D6E9FE" text-anchor="middle"  font-size="16pt" x="19" y="-1" font-weight="bold"> _ </text>
    <text fill="#D6E9FE" text-anchor="middle"  font-size="16pt" x="32" y="-1" font-weight="bold"> _ </text>
  <text fill="#D6E9FE" x="26" y="19" text-anchor="middle"  font-size="16pt">AB</text>
 </svg>




 <svg width="56" height="42" x="480" y="20">
  <rect x="0" y="0" width="56" height="42" fill="#191979" fill-opacity="1" stroke="#D6E9FE" stroke-width="2" stroke-opacity="1" rx="10" ry="10"/>
  <text fill="#D6E9FE" x="28" y="26" text-anchor="middle"  font-size="16pt" dy="-9">1</text>
  <text fill="#D6E9FE" x="28" y="26" text-anchor="middle"  font-size="16pt" dy="-9" font-weight="bold">__</text>
  <text fill="#D6E9FE" x="28" y="26" text-anchor="middle"  font-size="16pt" dy="13">30</text>
 </svg>

 <svg width="56" height="42" x="480" y="100">
  <rect x="0" y="0" width="56" height="42" fill="#191979" fill-opacity="1" stroke="#D6E9FE" stroke-width="2" stroke-opacity="1" rx="10" ry="10"/>
  <text fill="#D6E9FE" x="28" y="26" text-anchor="middle"  font-size="16pt" dy="-9">1</text>
  <text fill="#D6E9FE" x="28" y="26" text-anchor="middle"  font-size="16pt" dy="-9" font-weight="bold">__</text>
  <text fill="#D6E9FE" x="28" y="26" text-anchor="middle"  font-size="16pt" dy="13">30</text>
 </svg>

 <svg width="56" height="42" x="480" y="180">
  <rect x="0" y="0" width="56" height="42" fill="#191979" fill-opacity="1" stroke="#D6E9FE" stroke-width="2" stroke-opacity="1" rx="10" ry="10"/>
  <text fill="#D6E9FE" x="28" y="26" text-anchor="middle"  font-size="16pt" dy="-9">1</text>
  <text fill="#D6E9FE" x="28" y="26" text-anchor="middle"  font-size="16pt" dy="-9" font-weight="bold">__</text>
  <text fill="#D6E9FE" x="28" y="26" text-anchor="middle"  font-size="16pt" dy="13">30</text>
 </svg>

 <svg width="56" height="42" x="480" y="260">
  <rect x="0" y="0" width="56" height="42" fill="#191979" fill-opacity="1" stroke="#D6E9FE" stroke-width="2" stroke-opacity="1" rx="10" ry="10"/>
  <text fill="#D6E9FE" x="28" y="26" text-anchor="middle"  font-size="16pt" dy="-9">1</text>
  <text fill="#D6E9FE" x="28" y="26" text-anchor="middle"  font-size="16pt" dy="-9" font-weight="bold">__</text>
  <text fill="#D6E9FE" x="28" y="26" text-anchor="middle"  font-size="16pt" dy="13">30</text>
 </svg>
</svg>
